<?xml version="1.0" encoding="UTF-8" standalone="no"?>
<svg
   xmlns:dc="http://purl.org/dc/elements/1.1/"
   xmlns:cc="http://creativecommons.org/ns#"
   xmlns:rdf="http://www.w3.org/1999/02/22-rdf-syntax-ns#"
   xmlns:svg="http://www.w3.org/2000/svg"
   xmlns="http://www.w3.org/2000/svg"
   id="svg924"
   version="1.1"
   viewBox="0 0 69.585416 52.652085"
   height="199"
   width="263">
  <defs
     id="defs918" />
  <metadata
     id="metadata921">
    <rdf:RDF>
      <cc:Work
         rdf:about="">
        <dc:format>image/svg+xml</dc:format>
        <dc:type
           rdf:resource="http://purl.org/dc/dcmitype/StillImage" />
        <dc:title></dc:title>
      </cc:Work>
    </rdf:RDF>
  </metadata>
  <g
     transform="translate(-56.374622,3.941114)"
     id="layer1">
    <path
       style="fill:#8c7873;stroke-width:0.26458332"
       d="m 58.742795,-3.8467077 c 0,0 -1.118073,12.2989426 4.472294,19.0073827 L 77.750178,5.0978794 c 1.36e-4,1.351e-4 -6.70844,-10.0626605 -19.007383,-8.9445871 z"
       id="path2" />
    <path
       style="fill:#8c7873;stroke-width:0.26458332"
       d="m 123.50034,-3.759921 c 0,0 1.11807,12.2989427 -4.4723,19.007383 L 104.49296,5.1846662 c 0,1.351e-4 6.70857,-10.0626605 19.00738,-8.9445872 z"
       id="path4" />
    <path
       id="path8"
       d="m 91.16733,-0.49248758 c -13.68902,0 -31.383364,10.56361358 -34.660681,24.59788458 3.277182,14.034137 20.971525,24.597886 34.660681,24.597886 13.68916,0 31.38323,-10.563614 34.66068,-24.597886 C 122.55056,10.071126 104.85622,-0.49248758 91.16733,-0.49248758 Z"
       style="fill:#aa968c;stroke-width:0.26458332" />
    <path
       style="fill:#ffffff;stroke-width:0.26458332"
       d="m 71.041738,31.931911 -5.590367,-8.944722 c 0,0 10.062796,-12.298943 20.125457,-4.472294 z"
       id="path10" />
    <path
       style="fill:#ffffff;stroke-width:0.26458332"
       d="m 111.29279,31.931911 5.59036,-8.944722 c 0,0 -10.06279,-12.298943 -20.125456,-4.472294 z"
       id="path12" />
    <path
       style="fill:#464655;stroke-width:0.26458332"
       d="m 91.16733,46.467136 c -3.354221,0 -19.007383,-3.35422 -24.597885,-16.771236 0,0 4.066386,-11.385854 14.973489,-12.655432 3.355035,-0.390473 6.270042,2.333223 6.270042,5.710867 v 0 c 0,5.037152 -2.517359,9.740831 -6.708443,12.534932 v 0 z"
       id="path16" />
    <path
       style="fill:#464655;stroke-width:0.26458332"
       d="m 91.16733,46.467136 c 3.354222,0 19.00738,-3.35422 24.59789,-16.771236 0,0 -4.06639,-11.385854 -14.97349,-12.655432 -3.355039,-0.390473 -6.270045,2.333223 -6.270045,5.710867 v 0 c 0,5.037152 2.517358,9.740831 6.708445,12.534932 v 0 z"
       id="path18" />
    <path
       id="ellipse22"
       d="m 102.3482,38.081448 a 11.180869,8.3856859 0 0 1 -11.180864,8.385686 11.180869,8.3856859 0 0 1 -11.18087,-8.385686 11.180869,8.3856859 0 0 1 11.18087,-8.385686 11.180869,8.3856859 0 0 1 11.180864,8.385686 z"
       style="fill:#ffffff;stroke-width:0.26458332" />
    <path
       id="circle24"
       d="m 85.305773,22.563814 a 2.6596551,2.6596551 0 0 1 -2.659655,2.659655 2.6596551,2.6596551 0 0 1 -2.659655,-2.659655 2.6596551,2.6596551 0 0 1 2.659655,-2.659655 2.6596551,2.6596551 0 0 1 2.659655,2.659655 z"
       style="fill:#ffffff;stroke-width:0.26458332" />
    <path
       id="circle26"
       d="m 102.34806,22.563814 a 2.6596551,2.6596551 0 0 1 -2.659652,2.659655 2.6596551,2.6596551 0 0 1 -2.659655,-2.659655 2.6596551,2.6596551 0 0 1 2.659655,-2.659655 2.6596551,2.6596551 0 0 1 2.659652,2.659655 z"
       style="fill:#ffffff;stroke-width:0.26458332" />
    <path
       id="ellipse30"
       d="m 96.757703,36.963375 a 5.5903673,3.9132569 0 0 1 -5.590367,3.913257 5.5903673,3.9132569 0 0 1 -5.590368,-3.913257 5.5903673,3.9132569 0 0 1 5.590368,-3.913257 5.5903673,3.9132569 0 0 1 5.590367,3.913257 z"
       style="fill:#464655;stroke-width:0.26458332" />
  </g>
</svg>
