<?xml version="1.0" encoding="UTF-8" standalone="no"?>
<!-- Created with Inkscape (http://www.inkscape.org/) -->

<svg
   xmlns:dc="http://purl.org/dc/elements/1.1/"
   xmlns:cc="http://creativecommons.org/ns#"
   xmlns:rdf="http://www.w3.org/1999/02/22-rdf-syntax-ns#"
   xmlns:svg="http://www.w3.org/2000/svg"
   xmlns="http://www.w3.org/2000/svg"
   xmlns:sodipodi="http://sodipodi.sourceforge.net/DTD/sodipodi-0.dtd"
   xmlns:inkscape="http://www.inkscape.org/namespaces/inkscape"
   width="263"
   height="199"
   viewBox="0 0 69.585416 52.652085"
   version="1.1"
   id="svg924"
   inkscape:version="0.92.2 (unknown)"
   sodipodi:docname="raccoon2.svg">
  <defs
     id="defs918" />
  <sodipodi:namedview
     id="base"
     pagecolor="#ffffff"
     bordercolor="#666666"
     borderopacity="1.0"
     inkscape:pageopacity="0.0"
     inkscape:pageshadow="2"
     inkscape:zoom="1.979899"
     inkscape:cx="150.33444"
     inkscape:cy="67.69108"
     inkscape:document-units="px"
     inkscape:current-layer="layer1"
     showgrid="false"
     units="px"
     fit-margin-top="0"
     fit-margin-left="0"
     fit-margin-right="0"
     fit-margin-bottom="0"
     inkscape:window-width="1920"
     inkscape:window-height="960"
     inkscape:window-x="0"
     inkscape:window-y="27"
     inkscape:window-maximized="1" />
  <metadata
     id="metadata921">
    <rdf:RDF>
      <cc:Work
         rdf:about="">
        <dc:format>image/svg+xml</dc:format>
        <dc:type
           rdf:resource="http://purl.org/dc/dcmitype/StillImage" />
        <dc:title></dc:title>
      </cc:Work>
    </rdf:RDF>
  </metadata>
  <g
     inkscape:label="Layer 1"
     inkscape:groupmode="layer"
     id="layer1"
     transform="translate(-56.374622,3.941114)">
    <path
       inkscape:connector-curvature="0"
       id="path2"
       d="m 58.742795,-3.8467077 c 0,0 -1.118073,12.2989426 4.472294,19.0073827 L 77.750178,5.0978794 c 1.36e-4,1.351e-4 -6.70844,-10.0626605 -19.007383,-8.9445871 z"
       style="fill:#8c7873;stroke-width:0.26458332" />
    <path
       inkscape:connector-curvature="0"
       id="path4"
       d="m 123.50034,-3.759921 c 0,0 1.11807,12.2989427 -4.4723,19.007383 L 104.49296,5.1846662 c 0,1.351e-4 6.70857,-10.0626605 19.00738,-8.9445872 z"
       style="fill:#8c7873;stroke-width:0.26458332" />
    <path
       style="fill:#aa968c;stroke-width:0.26458332"
       d="m 91.16733,-0.49248758 c -13.68902,0 -31.383364,10.56361358 -34.660681,24.59788458 3.277182,14.034137 20.971525,24.597886 34.660681,24.597886 13.68916,0 31.38323,-10.563614 34.66068,-24.597886 C 122.55056,10.071126 104.85622,-0.49248758 91.16733,-0.49248758 Z"
       id="path8"
       inkscape:connector-curvature="0" />
    <path
       inkscape:connector-curvature="0"
       id="path10"
       d="m 71.041738,31.931911 -5.590367,-8.944722 c 0,0 10.062796,-12.298943 20.125457,-4.472294 z"
       style="fill:#ffffff;stroke-width:0.26458332" />
    <path
       inkscape:connector-curvature="0"
       id="path12"
       d="m 111.29279,31.931911 5.59036,-8.944722 c 0,0 -10.06279,-12.298943 -20.125456,-4.472294 z"
       style="fill:#ffffff;stroke-width:0.26458332" />
    <path
       inkscape:connector-curvature="0"
       id="path16"
       d="m 91.16733,46.467136 c -3.354221,0 -19.007383,-3.35422 -24.597885,-16.771236 0,0 4.066386,-11.385854 14.973489,-12.655432 3.355035,-0.390473 6.270042,2.333223 6.270042,5.710867 v 0 c 0,5.037152 -2.517359,9.740831 -6.708443,12.534932 v 0 z"
       style="fill:#464655;stroke-width:0.26458332" />
    <path
       inkscape:connector-curvature="0"
       id="path18"
       d="m 91.16733,46.467136 c 3.354222,0 19.00738,-3.35422 24.59789,-16.771236 0,0 -4.06639,-11.385854 -14.97349,-12.655432 -3.355039,-0.390473 -6.270045,2.333223 -6.270045,5.710867 v 0 c 0,5.037152 2.517358,9.740831 6.708445,12.534932 v 0 z"
       style="fill:#464655;stroke-width:0.26458332" />
    <path
       style="fill:#ffffff;stroke-width:0.26458332"
       d="m 102.3482,38.081448 a 11.180869,8.3856859 0 0 1 -11.180864,8.385686 11.180869,8.3856859 0 0 1 -11.18087,-8.385686 11.180869,8.3856859 0 0 1 11.18087,-8.385686 11.180869,8.3856859 0 0 1 11.180864,8.385686 z"
       id="ellipse22" />
    <path
       style="fill:#ffffff;stroke-width:0.26458332"
       d="m 85.305773,22.563814 a 2.6596551,2.6596551 0 0 1 -2.659655,2.659655 2.6596551,2.6596551 0 0 1 -2.659655,-2.659655 2.6596551,2.6596551 0 0 1 2.659655,-2.659655 2.6596551,2.6596551 0 0 1 2.659655,2.659655 z"
       id="circle24" />
    <path
       style="fill:#ffffff;stroke-width:0.26458332"
       d="m 102.34806,22.563814 a 2.6596551,2.6596551 0 0 1 -2.659652,2.659655 2.6596551,2.6596551 0 0 1 -2.659655,-2.659655 2.6596551,2.6596551 0 0 1 2.659655,-2.659655 2.6596551,2.6596551 0 0 1 2.659652,2.659655 z"
       id="circle26" />
    <path
       style="fill:#464655;stroke-width:0.26458332"
       d="m 96.757703,36.963375 a 5.5903673,3.9132569 0 0 1 -5.590367,3.913257 5.5903673,3.9132569 0 0 1 -5.590368,-3.913257 5.5903673,3.9132569 0 0 1 5.590368,-3.913257 5.5903673,3.9132569 0 0 1 5.590367,3.913257 z"
       id="ellipse30" />
  </g>
</svg>
